<?xml version="1.0" encoding="utf-8"?>
<!-- Generator: Adobe Illustrator 22.0.1, SVG Export Plug-In . SVG Version: 6.00 Build 0)  -->
<svg version="1.1" id="vv" xmlns="http://www.w3.org/2000/svg" xmlns:xlink="http://www.w3.org/1999/xlink" x="0px" y="0px"
	 viewBox="0 0 2272 1872" style="enable-background:new 0 0 2272 1872;" xml:space="preserve">
<style type="text/css">
	.st0{clip-path:url(#SVGID_2_);fill:#EFBB81;}
	.st1{clip-path:url(#SVGID_2_);}
	.st2{fill:#EE502B;}
	.st3{fill:#ED842E;}
	.st4{fill:#ED832E;}
	.st5{fill:#ED822E;}
	.st6{fill:#ED812E;}
	.st7{fill:#ED802E;}
	.st8{fill:#ED7F2E;}
	.st9{fill:#ED7E2E;}
	.st10{fill:#ED7D2E;}
	.st11{fill:#ED7C2E;}
	.st12{fill:#ED7B2D;}
	.st13{fill:#ED7A2D;}
	.st14{fill:#ED792D;}
	.st15{fill:#ED782D;}
	.st16{fill:#ED772D;}
	.st17{fill:#ED762D;}
	.st18{fill:#ED752D;}
	.st19{fill:#ED742D;}
	.st20{fill:#ED732D;}
	.st21{fill:#ED722D;}
	.st22{fill:#ED712D;}
	.st23{fill:#ED702D;}
	.st24{fill:#ED6F2D;}
	.st25{fill:#ED6E2D;}
	.st26{fill:#ED6D2D;}
	.st27{fill:#ED6C2D;}
	.st28{fill:#ED6B2D;}
	.st29{fill:#ED6A2D;}
	.st30{fill:#EE6A2C;}
	.st31{fill:#EE692C;}
	.st32{fill:#EE682C;}
	.st33{fill:#EE672C;}
	.st34{fill:#EE662C;}
	.st35{fill:#EE652C;}
	.st36{fill:#EE642C;}
	.st37{fill:#EE632C;}
	.st38{fill:#EE622C;}
	.st39{fill:#EE612C;}
	.st40{fill:#EE602C;}
	.st41{fill:#EE5F2C;}
	.st42{fill:#EE5E2C;}
	.st43{fill:#EE5D2C;}
	.st44{fill:#EE5C2C;}
	.st45{fill:#EE5B2C;}
	.st46{fill:#EE5A2C;}
	.st47{fill:#EE592C;}
	.st48{fill:#EE582B;}
	.st49{fill:#EE572B;}
	.st50{fill:#EE562B;}
	.st51{fill:#EE552B;}
	.st52{fill:#EE542B;}
	.st53{fill:#EE532B;}
	.st54{fill:#EE522B;}
	.st55{fill:#EE512B;}
	.st56{fill:#FFE576;}
	.st57{fill:#C43523;}
	.st58{fill:#EFBB81;}
	.st59{fill:#E04336;}
	.st60{fill:#B73730;}
	.st61{fill:#ED502B;}
	.st62{fill:#EC4F2B;}
	.st63{fill:#EB4F2B;}
	.st64{fill:#EA4E2B;}
	.st65{fill:#E94E2B;}
	.st66{fill:#E84D2B;}
	.st67{fill:#E74D2B;}
	.st68{fill:#E64C2C;}
	.st69{fill:#E54C2C;}
	.st70{fill:#E44B2C;}
	.st71{fill:#E34B2C;}
	.st72{fill:#E24A2C;}
	.st73{fill:#E14A2C;}
	.st74{fill:#E0492C;}
	.st75{fill:#DF492C;}
	.st76{fill:#DE482C;}
	.st77{fill:#DD482C;}
	.st78{fill:#DC472C;}
	.st79{fill:#DB472C;}
	.st80{fill:#DA462C;}
	.st81{fill:#D9462C;}
	.st82{fill:#D8452D;}
	.st83{fill:#D7452D;}
	.st84{fill:#D6442D;}
	.st85{fill:#D5442D;}
	.st86{fill:#D4432D;}
	.st87{fill:#D3432D;}
	.st88{fill:#D2422D;}
	.st89{fill:#D1422D;}
	.st90{fill:#D0412D;}
	.st91{fill:#CF412D;}
	.st92{fill:#CE402D;}
	.st93{fill:#CD402D;}
	.st94{fill:#CC3F2D;}
	.st95{fill:#CB3F2D;}
	.st96{fill:#CA3E2E;}
	.st97{fill:#C93E2E;}
	.st98{fill:#C83D2E;}
	.st99{fill:#C73D2E;}
	.st100{fill:#C63D2E;}
	.st101{fill:#C53C2E;}
	.st102{fill:#C43C2E;}
	.st103{fill:#C33B2E;}
	.st104{fill:#C23B2E;}
	.st105{fill:#C13A2E;}
	.st106{fill:#C03A2E;}
	.st107{fill:#BF392E;}
	.st108{fill:#BE392E;}
	.st109{fill:#BD382E;}
	.st110{fill:#BC382F;}
	.st111{fill:#BB372F;}
	.st112{fill:#BA372F;}
	.st113{fill:#B9362F;}
	.st114{fill:#B8362F;}
	.st115{fill:#B7352F;}
	.st116{fill:#B6352F;}
	.st117{fill:#B5342F;}
	.st118{fill:#B4342F;}
	.st119{fill:#B3332F;}
	.st120{fill:#B2332F;}
	.st121{fill:#B1322F;}
	.st122{fill:#B0322F;}
	.st123{fill:#AF312F;}
	.st124{fill:#AE3130;}
	.st125{fill:#AD3030;}
	.st126{fill:#AC3030;}
	.st127{fill:#AB2F30;}
	.st128{fill:#AA2F30;}
	.st129{fill:#A92E30;}
	.st130{fill:#A82E30;}
	.st131{fill:#A72D30;}
	.st132{fill:#A62D30;}
	.st133{fill:#A52C30;}
	.st134{fill:#A42C30;}
	.st135{fill:#A32B30;}
	.st136{fill:#A22B30;}
	.st137{fill:#A12A30;}
	.st138{fill:#A02A31;}
	.st139{fill:#9F2A31;}
	.st140{fill:#9E2931;}
	.st141{fill:#9D2931;}
	.st142{fill:#9C2831;}
	.st143{fill:#9B2831;}
	.st144{fill:#9A2731;}
	.st145{fill:#992731;}
	.st146{fill:#982631;}
	.st147{fill:#972631;}
	.st148{fill:#962531;}
	.st149{fill:#952531;}
	.st150{fill:#942431;}
	.st151{fill:#932431;}
	.st152{fill:#922331;}
	.st153{fill:#912332;}
	.st154{fill:#902232;}
	.st155{fill:#8F2232;}
	.st156{fill:#8E2132;}
	.st157{fill:#8D2132;}
	.st158{fill:#8C2032;}
	.st159{fill:#8B2032;}
	.st160{fill:#8A1F32;}
	.st161{fill:#891F32;}
	.st162{fill:#881E32;}
	.st163{fill:#871E32;}
	.st164{fill:#861D32;}
	.st165{fill:#851D32;}
	.st166{fill:#841C32;}
	.st167{fill:#831C33;}
	.st168{fill:#821B33;}
	.st169{fill:#811B33;}
	.st170{fill:#801A33;}
	.st171{fill:#7F1A33;}
	.st172{fill:#7E1933;}
	.st173{fill:#7D1933;}
	.st174{fill:#7C1833;}
	.st175{fill:#7B1833;}
	.st176{fill:#7A1733;}
	.st177{fill:#791733;}
	.st178{fill:#781733;}
	.st179{fill:#771633;}
	.st180{fill:#761633;}
	.st181{fill:#751534;}
	.st182{fill:#741534;}
	.st183{fill:#731434;}
	.st184{fill:#721434;}
	.st185{fill:#711334;}
	.st186{fill:#701334;}
	.st187{fill:#6F1234;}
	.st188{fill:#6E1234;}
	.st189{fill:#6D1134;}
	.st190{fill:#6C1134;}
	.st191{fill:#6B1034;}
	.st192{fill:#6A1034;}
	.st193{fill:#690F34;}
	.st194{fill:#680F34;}
	.st195{fill:#670E35;}
	.st196{fill:#660E35;}
	.st197{fill:#650D35;}
	.st198{fill:#640D35;}
	.st199{fill:#630C35;}
	.st200{fill:#620C35;}
	.st201{fill:#610B35;}
	.st202{fill:#600B35;}
	.st203{fill:#5F0A35;}
	.st204{fill:#5E0A35;}
	.st205{fill:#5D0935;}
	.st206{fill:#5C0935;}
	.st207{fill:#5B0835;}
	.st208{fill:#5A0835;}
	.st209{fill:#590736;}
	.st210{fill:#580736;}
	.st211{fill:#570636;}
	.st212{fill:#560636;}
	.st213{fill:#550536;}
	.st214{fill:#540536;}
	.st215{fill:#530436;}
	.st216{fill:#520436;}
	.st217{fill:#72143A;}
	.st218{fill:#3F042D;}
</style>
<g id="Layer_1_1_">
</g>
<g id="Layer_2">
</g>
<g>
	<defs>
		<rect id="SVGID_1_" x="0" width="2272" height="1872"/>
	</defs>
	<clipPath id="SVGID_2_">
		<use xlink:href="#SVGID_1_"  style="overflow:visible;"/>
	</clipPath>
	<path class="st0" d="M1020.4,1325.8c-0.7-9-8.2-21.8-16.7-24.7c-8.6-3-17,4.5-23.1,11.3c-2.4-11.4-18.7-19.3-30-22.3
		c-6.3-1.7-14-0.9-17.9,4.3c-1-12.7-8.1-26.2-17.6-37.4c-5.4,0.1-10.3,0.9-13.5,2.3c-2.1-6.7-9-11.5-16-11
		c-7,0.4-22.5,5.9-23.7,12.8c-6.3-6.7-15.3-11.9-24.4-10.5s-26.5,10.9-22.6,19.3c-5.8-6.4-15.5-9-23.7-6.4
		c-8.2,2.7-18.5,10.9-19.4,19.5c-4.2-7.5-12.5-12.6-21.1-12.8c-8.6-0.2-17.8,5.1-22.4,12.4c-0.1-7.4-9.1-11.9-16.3-10.3
		s-17.2-1.3-22.2,4c2.1-12.7-7.2-26.1-19.8-28.7c-12.6-2.5-31.9,10.1-34.9,22.6c-4.7-13.4-18.7-22.8-32.8-22.3
		c-10.9,0.5-25.8,6.7-33.7,15.9c5.4,4.5,9.1,10.8,9.2,17.8c5.7-5.5,15.4-1.3,22,3.1c6.5,4.4,10.7,11.5,14.6,18.3
		c7.6-5.3,19.6-13.9,28.3-10.7c8.7,3.3,15.5,10.9,17.8,19.9c14.2-9.9,41.9-7.2,46.4,9.5c4.1-4.3,17.3-7.4,23-5.5s9.9,7.2,10.7,13.1
		c11.8-11.2,41.2-22.1,55.6-14.3c9.9-10.2,29.6-24.3,43.6-21.6c-2.9-3.6,1.3-10.9,5.8-12.1c11.7-3,26.9-2.9,32.9,7.6
		c7.2-2.6,19.4-2.2,24.2,3.9s6.8,13.7,8.7,21.2c1.8,0,3.6,0.1,5.4,0.1c16,0.3,36.5,7.1,34.6,22.9c-0.3,2.5-0.8,5.5,1.1,7.1
		c1.8,1.4,4.4,0.7,6.6,0.1c13.7-3.8,28.8,2.2,37.8,13h94.2c-10.7-9.4-23.5-16.2-36.1-22.9
		C1044.1,1328.5,1032.1,1322.7,1020.4,1325.8z"/>
	<g class="st1">
		<rect x="0" class="st2" width="2272" height="1872"/>
		<g>
			<g>
				<rect y="463.5" class="st2" width="2272" height="893.6"/>
				<g>
					<rect y="1193.1" class="st3" width="2272" height="161.5"/>
					<rect x="0" y="1183.6" class="st4" width="2272" height="161.5"/>
					<rect y="1174.1" class="st5" width="2272" height="161.5"/>
					<rect x="0" y="1164.6" class="st6" width="2272" height="161.5"/>
					<rect y="1155.1" class="st7" width="2272" height="161.5"/>
					<rect y="1145.6" class="st8" width="2272" height="161.5"/>
					<rect y="1136.1" class="st9" width="2272" height="161.5"/>
					<rect x="0" y="1126.6" class="st10" width="2272" height="161.5"/>
					<rect y="1117.1" class="st11" width="2272" height="161.5"/>
					<rect y="1107.6" class="st12" width="2272" height="161.5"/>
					<rect y="1098.1" class="st13" width="2272" height="161.5"/>
					<rect y="1088.6" class="st14" width="2272" height="161.5"/>
					<rect y="1079.1" class="st15" width="2272" height="161.5"/>
					<rect y="1069.6" class="st16" width="2272" height="161.5"/>
					<rect y="1060.1" class="st17" width="2272" height="161.5"/>
					<rect y="1050.6" class="st18" width="2272" height="161.5"/>
					<rect y="1041.1" class="st19" width="2272" height="161.5"/>
					<rect y="1031.6" class="st20" width="2272" height="161.5"/>
					<rect y="1022" class="st21" width="2272" height="161.5"/>
					<rect y="1012.5" class="st22" width="2272" height="161.5"/>
					<rect y="1003" class="st23" width="2272" height="161.5"/>
					<rect y="993.5" class="st24" width="2272" height="161.5"/>
					<rect y="984" class="st25" width="2272" height="161.5"/>
					<rect y="974.5" class="st26" width="2272" height="161.5"/>
					<rect y="965" class="st27" width="2272" height="161.5"/>
					<rect y="955.5" class="st28" width="2272" height="161.5"/>
					<rect y="946" class="st29" width="2272" height="161.5"/>
					<rect y="936.5" class="st30" width="2272" height="161.5"/>
					<rect y="927" class="st31" width="2272" height="161.5"/>
					<rect y="917.5" class="st32" width="2272" height="161.5"/>
					<rect y="908" class="st33" width="2272" height="161.5"/>
					<rect y="898.5" class="st34" width="2272" height="161.5"/>
					<rect y="889" class="st35" width="2272" height="161.5"/>
					<rect y="879.5" class="st36" width="2272" height="161.5"/>
					<rect y="870" class="st37" width="2272" height="161.5"/>
					<rect y="860.5" class="st38" width="2272" height="161.5"/>
					<rect y="851" class="st39" width="2272" height="161.5"/>
					<rect y="841.5" class="st40" width="2272" height="161.5"/>
					<rect y="832" class="st41" width="2272" height="161.5"/>
					<rect y="822.5" class="st42" width="2272" height="161.5"/>
					<rect y="813" class="st43" width="2272" height="161.5"/>
					<rect y="803.5" class="st44" width="2272" height="161.5"/>
					<rect y="793.9" class="st45" width="2272" height="161.5"/>
					<rect y="784.4" class="st46" width="2272" height="161.5"/>
					<rect y="774.9" class="st47" width="2272" height="161.5"/>
					<rect y="765.4" class="st48" width="2272" height="161.5"/>
					<rect y="755.9" class="st49" width="2272" height="161.5"/>
					<rect y="746.4" class="st50" width="2272" height="161.5"/>
					<rect y="736.9" class="st51" width="2272" height="161.5"/>
					<rect y="727.4" class="st52" width="2272" height="161.5"/>
					<rect y="717.9" class="st53" width="2272" height="161.5"/>
					<rect y="708.4" class="st54" width="2272" height="161.5"/>
					<rect y="698.9" class="st55" width="2272" height="161.5"/>
					<rect y="689.4" class="st2" width="2272" height="161.5"/>
				</g>
				<circle class="st56" cx="668.1" cy="1175.5" r="124.9"/>
				<path class="st57" d="M2262.8,950.9c-20.5-17.5-62.4-7.4-88,1.2c-5-1.6-9.9-3.2-14.9-4.8c-27.7-39.4-94.8-44.3-140.4-28.9
					c-15.6-24.8-46.6-39-75.6-34.4c-5.9,0.9-20,17.6-19.6,23.6c-12.7-20.2-41.6-14.6-57.6,3.2c-9.4-10.2-28.3-4.3-34.2,8.3
					c-5.8,12.6,6.4,33.4,14.1,45c-7.2-9-23.5-2.9-27.1,8.1s4.8,42.4,11.9,51.5c-14.2-9.6-33,14.5-47.6,23.7
					c-8.6-0.2-15.1-7.2-22.4-11.9c-7.2-4.6-36.3,15.6-39.8,23.4c4-12.9-29.2-18.4-40.3-10.6c9.4-15.4-12.5-41.4-30.2-37.9
					c0.8-8.2-4.3-16.6-11.9-19.7s-20.3,2.5-25.4,8.9c-6.2-6.9-13.3-14.1-22.5-15.3c-9.2-1.1-19,31.5-15,39.9
					c-9.2-9.6-22.8-16.3-35.8-13.5c-13,2.8-20.7,41.3-15.4,53.5c-10.1-7.2-24.9-7.2-34.9,0.2c-10,7.3-9.2,44.6-5.4,56.5
					c-8.8-10.9-33,18.8-40.6,30.7c-9.8-2.3-20.7-4.6-29.6,0.1c-9,4.6-15.4,44.5-6.8,49.6c-14.2-1.2-30.3,0.5-39.4,11.4
					c-6.2,7.4-2.3,19.6,5.2,26.8c4.7,0.7,9.1,2.5,12.6,5.7c-4.6,0-9-2.3-12.6-5.7c-9.4-1.3-19.8,2.2-26.5,9.2
					c-10,10.4-12.7,26.3-10.5,40.6c1.8,11.4-9.1,16.5-10.5,24.6c0.7,2.3,1.1,4.6,1.3,7.1c-1.3-2.7-1.6-5-1.3-7.1
					c-3.6-11.7-14-21.1-25.6-25.8c-13.8-5.6-29.2-5.8-44.1-6c-3,0-6.4,0.1-8.5,2.2c-1.8,1.8-8.8,5.9-9.1,7.2
					c0.2,0.1,0.4,0.3,0.6,0.4c-0.5,0-0.6-0.2-0.6-0.4c-15.2-10.8-32.6-19.2-51.1-20.4c-18.8-1.2-38.8,6.1-49.5,21.6
					c-29.1-13.9-62.7-18.1-94.3-11.9c-5.1,1-10.6,2.5-13.8,6.7c-2.8,3.7-15.4,10.5-14.7,13c0.3,0.2,0.6,0.5,0.9,0.7
					c-0.6-0.2-0.8-0.4-0.9-0.7c-36.8-29.1-93.6-29.5-130.7-0.7c3.3-10.4-9.3-18.5-19.9-20.9c-24.9-5.6-51.6-3.2-75.1,6.9
					c0,3.1-17.8,9.1-17.8,12.2c-5.7-29-43.8-45.3-72.5-38.5c0.2-20-11-39.7-28.2-49.8s-43.3,9.6-62.7,14.3c-4.1,1-2.8-5.9-2.1-10.1
					c1.7-10.2-13-13.9-23.3-13.1c-17.8,1.3-53.8,3-59.6,19.8c-0.4-11.8-10.1-22.6-21.8-24.2c-11.7-1.7-27.7-3.3-31.4,7.9
					c-1.6-13.1-10.5-25.1-22.5-30.6c-12.1-5.4-40.5-16.8-47.1-5.3c-1.2,2.1-4.3-0.2-5.1-2.5c-2.5-7.2-1-15-0.6-22.6
					c0.4-7.6-0.9-16.2-7-20.6c-5.4-3.9-28.4-16.7-32.7-14.5c-0.2,0.6-0.4,1.2-0.7,1.7c-0.1-0.9,0.1-1.4,0.7-1.7
					c2.4-7-0.2-15.6-6.4-19.8c-6.7-4.5-25.6,0.1-31.1,6.1c3.1-9.9-11.5-17.6-20.7-12.8c-9.2,4.8-34.5,15.7-37.7,25.6
					c-0.6-8.3-7.3-15.7-15.5-17.2c-8.2-1.4-28.6-3.5-32,4.1c2.9-8.9,5.7-18.9,1.8-27.4s-18.4-29.3-22.7-21
					c-0.6-17.5-4.2-34.9-10.4-51.2c-3.3-8.6-7.9-17.6-16.3-21.5c-6.3-2.9-13.6-2.5-20.3-1.1c-19.8,4-42,5.9-54,22.1
					c0.2-9.3-6.6-18.3-15.6-20.7c-9-2.4-25.7-7.5-30.1,0.7c3.4-6.6,0.9-15.5-5.3-19.5c-6.2-3.9-13.1-15.2-17.6-9.3
					c2.5-15.5-7.1-32-21.4-38.2v449.9h2272V960.3C2269.2,956.9,2266.1,953.7,2262.8,950.9z"/>
				<path class="st58" d="M15.7,976.2c9.5,0.2,22.8,18.8,24.9,28s0.1,18.9-1.9,28.2c21.4-0.2,45.4,20.6,47,42
					c4.2-4.7,18.3,3,22.2,7.9s4.6,11.6,5.2,17.9c7.6-3.3,21.8,1.8,28.8,6.3c6.8,4.5,11.2,12.5,11.4,20.7c0.4-2.5,14.5-4.2,17.2-4.6
					c8.9-1.4,18-1.7,27-1c8.9,0.8,18.5,3.1,23.9,10.2c5.8,7.7,6,19.9,14.6,24.3c15.1-12.3,45.5-7.4,55.4,9.4
					c-0.2-5,10.3-15.7,15.1-17.1c12.5-3.6,26.4-1.8,37.6,4.8c14.7-10.9,31.6-18.8,49.3-23.5c-1.1-2.7-2.7-5.1-5.1-6.8
					c-5.4-3.9-28.4-16.7-32.7-14.5c-0.2,0.6-0.4,1.2-0.7,1.7c-0.1-0.9,0.1-1.4,0.7-1.7c2.4-7-0.2-15.6-6.4-19.8
					c-6.7-4.5-25.6,0.1-31.1,6.1c3.1-9.9-11.5-17.6-20.7-12.8c-9.2,4.8-34.5,15.7-37.7,25.6c-0.6-8.3-7.3-15.7-15.5-17.2
					c-8.2-1.4-28.6-3.5-32,4.1c2.9-8.9,5.7-18.9,1.8-27.4s-18.4-29.3-22.7-21c-0.6-17.5-4.2-34.9-10.4-51.2
					c-3.3-8.6-7.9-17.6-16.3-21.5c-6.3-2.9-13.6-2.5-20.3-1.1c-19.8,4-42,5.9-54,22.1c0.2-9.3-6.6-18.3-15.6-20.7
					c-9-2.4-25.7-7.5-30.1,0.7c3.4-6.6,0.9-15.5-5.3-19.5c-6.2-3.9-13.1-15.2-17.6-9.3c2.5-15.5-7.1-32-21.4-38.2v20
					c1.8,2.7,3.3,5.5,4.7,8.4C10.9,948.3,14.6,962.1,15.7,976.2z"/>
				<path class="st59" d="M2232.5,825.8c-11.6,1-22,10.2-24.4,21.6c-0.9-10.9-1.9-22.3-7.5-31.6c-5.6-9.4-19.2-11-29.4-7.1
					c-6.7-12.1-13.7-24.6-24.9-32.8c-11.2-8.2-34.7,0.7-45.6,9.3c-14.8-22.5-45.5-6.5-59.8,16.3c-12.2-5-27.2-2.1-36.7,7.2
					c-9.4,9.2-2.5,42.9,2.3,55.2c-9.7-7-25-4.2-31.6,5.8c-6.3,9.4,0.9,33.9,10.3,42c0.6,0.4,1.1,0.8,1.7,1.3
					c-0.6-0.4-1.1-0.8-1.7-1.3c-11-7.3-28,1.3-32.7,14.2c-4.9,13.5,0,40.6,5.7,53.8c-10.5-8.2-26.9-7.5-36.7,1.6
					c-9.8,9.1-23.7,36.1-16.3,47.2c-9.8-5.7-23.8-2.2-29.9,7.3s-12.7,33-3.3,39.4c-11.5-5.2-26.2-2.5-35.1,6.6
					c-8.9,9.1-20.4,29.7-14.9,41.1c-13.1-20-51.1-21.5-63.9-1.4c-1.2-8.3-2.7-17.2-8.9-22.8c-6.2-5.6-36.7-5.3-38.5,2.9
					c-1.2-12.6-11.4-23.8-23.9-26.2s-28.4,14.7-34.3,26c-5.9-9.4-21.5-7.9-28.4,0.8c-6.9,8.7-21.1,20.6-17.6,31.1
					c-6.1-9.5-22.5-6.1-27.7,3.9c-5.2,10-14.5,28.7-8.4,38.2c-4.7-8.2-15.6-12.4-24.6-9.4s-27.8,13.2-26.7,22.6
					c-12.2-3.6-36.7,16.5-37.5,29.8c0.1,0.6,0.1,1.3,0,2c-0.1-0.6-0.1-1.3,0-2c-1.2-8.1-15.2-10.4-21.2-3.7
					c-4.9,5.4-13.2,18.1-16.7,28.2c2.2,3.6,2.4,8.7-1.5,8.8c-0.3-2.4,0.3-5.4,1.5-8.8c-0.6-0.9-1.2-1.7-2-2.3
					c-10.8-8.7-39.3-7.9-51.4-1.2c2-9.2,3-19.8-2.7-27.3c-5.7-7.6-28.3-17.4-30.5-8.2c3.2-11.5,6.4-24.3,1-35
					c-5.3-10.7-24-27.1-29.5-16.5c-3.6-16.3-23-27.1-38.8-21.6s-30.6,22.7-23.3,37.8c-6.8-15.8-40.6-22.1-47.9-6.6
					c-4.9-7.4-14.6-11.1-23.2-9s-27.8,11.3-28.6,20.1c-2.7-1.1-3.7-4.2-5.4-6.6c-5.6-7.8-17.3-6.6-26.7-4.7
					c-10.2,2.1-29.1,16.5-30.6,26.8c-5.6-5.7-14.6-6.9-22.3-5c-7.7,1.9-14.5,6.5-20.9,11.4c-4.5,3.4-17,8.8-16.3,12.3
					c0.4,0.4,0.8,0.9,1.1,1.3c-0.7-0.4-1-0.9-1.1-1.3c-5-5.6-12.9-8.6-20.4-7.6c-8,1.1-20,11.9-22.9,19.5c-11.3-7.4-27.7-6-37.6,3.3
					c-9.5,8.9-24.5,31.4-19.8,43.6c0.3,0.5,0.5,1,0.7,1.5c-0.3-0.5-0.5-1-0.7-1.5c-5.6-9.7-32-11-42.3-6.8c-2.1-6.7-9-11.5-16-11
					c-7,0.4-22.5,5.9-23.7,12.8c-6.3-6.7-15.3-11.9-24.4-10.5s-26.5,10.9-22.6,19.3c-5.8-6.4-15.5-9-23.7-6.4
					c-8.2,2.7-18.5,10.9-19.4,19.5c-4.2-7.5-12.5-12.6-21.1-12.8c-8.6-0.2-17.8,5.1-22.4,12.4c-0.1-7.4-9.1-11.9-16.3-10.3
					s-17.2-1.3-22.2,4c2.1-12.7-7.2-26.1-19.8-28.7c-12.6-2.5-31.9,10.1-34.9,22.6c-4.7-13.4-18.7-22.8-32.8-22.3s-35,11-38.5,24.7
					c-19-13.1-49,1.1-58.6,22.1c-21.8-14.1-63,2.7-69.8,27.8c-5.8-15.5-20.1-27.6-36.4-30.6c-16.3-3-44.9,2-55.8,14.5
					c-2.4-12.4-5.2-25.5-13.8-34.7c-8.6-9.2-29.5-23.8-37.8-14.2c-2-12.6-4.5-26.1-13.7-34.8c-9.2-8.7-32.1-7.3-36.5,4.6
					c-2.8-13.8-9.7-26.8-19.5-36.9c-15.4,4-30.9,10.3-41.8,21.9c-10.9,11.6-27.1,26.6-20.7,41.2c-6.6-10.7-15.8-21-28.2-23.2
					s-41.3-7.3-39.3,5.1c-6.5-10.8-13.6-22.2-24.9-27.7c-11.3-5.6-26.2-5.4-30.1,6.6c-7.8-17.1-20.1-33.4-36.9-41v184h2272V834.4
					c-4.2,2.5-8.2,5.5-11.9,8.8C2255.9,832.3,2244.1,824.9,2232.5,825.8z"/>
				<path class="st58" d="M1339.5,1348.4c29.3-26.4,71.8-37.4,110.2-28.6c-0.8-13.6,9.8-29.6,21.5-36.7
					c25.6-15.5,57.9-19.4,86.5-10.6c-4.9-3.1-4.5-14.2-0.8-18.7c5.8-7.1,14.3-11.9,23.3-13.1c-0.8-7.8,11.1-8.3,18.9-9
					s15.4,2.6,22.5,5.9c-8.6-10.6-8.3-35.9-0.6-47.1c7.8-11.2,24.4-15.4,36.1-8.5c-7.4-12.7-7.1-48,7.3-50.8
					c-1.4-12.8,4.3-39,15.5-45.4c4.9-2.8,10-5.2,15.2-7.3c-2.6-1.5-5.5-2.6-8.5-3.2c-12.4-2.4-28.4,14.7-34.3,26
					c-5.9-9.4-21.5-7.9-28.4,0.8c-6.9,8.7-21.1,20.6-17.6,31.1c-6.1-9.5-22.5-6.1-27.7,3.9c-5.2,10-14.5,28.7-8.4,38.2
					c-4.7-8.2-15.6-12.4-24.6-9.4s-27.8,13.2-26.7,22.6c-12.2-3.6-36.7,16.5-37.5,29.8c0.1,0.6,0.1,1.3,0,2c-0.1-0.6-0.1-1.3,0-2
					c-1.2-8.1-15.2-10.4-21.2-3.7c-3.7,4.2-9.5,12.6-13.6,20.9c5.6-9.2,13-17.2,21.8-23.6c-8.7,6.3-16.1,14.4-21.8,23.6
					c-1.2,2.5-2.3,5-3.1,7.3c2.2,3.6,2.4,8.7-1.5,8.8c-0.3-2.4,0.3-5.4,1.5-8.8c-0.2-0.3-0.4-0.5-0.5-0.8c-3,6-5.3,12.4-6.8,19.1
					c-17.3-3.2-37.5,10.9-43.4,27.4c-12,1-24.3,2.8-34.9,8.6s-25.2,13.9-25.6,26c-14.6-3-30.6,3.7-38.9,16.1
					c-3.6,5.4-5.6,11.7-6,18.1h43.6C1333.7,1353.9,1336.5,1351,1339.5,1348.4z"/>
				<g>
					<path class="st58" d="M1172.7,1173.5c1.7,2.3,2.8,5.4,5.4,6.6c0.8-8.8,20-17.9,28.6-20.1c3.5-0.9,7.1-0.8,10.5,0.1
						c-5.2-6.2-14-9.2-21.9-7.2c-7.4,1.9-22.9,9-27.4,16.6C1169.8,1170.4,1171.5,1171.7,1172.7,1173.5z"/>
					<path class="st58" d="M1229.9,1168.9c4.7-9.9,20.3-10.9,32.6-6.2c-10.9-11.1-36-14.2-43.4-2.1
						C1223.5,1162.2,1227.4,1165,1229.9,1168.9z"/>
					<path class="st58" d="M1277.9,1175.5c-7.3-15,7.6-32.3,23.3-37.8c6.3-2.2,13.1-1.8,19.3,0.5c-8-7.7-20.1-11.3-30.7-7.6
						c-14.2,4.9-27.5,19.3-24.9,33.1C1270.9,1166.4,1275.7,1170.5,1277.9,1175.5z"/>
					<path class="st58" d="M955.3,1273.1c-4.7-12.2,10.3-34.7,19.8-43.6c9.9-9.3,26.2-10.7,37.6-3.3c2.9-7.6,14.9-18.3,22.9-19.5
						c3-0.4,6.1-0.2,9.1,0.6c0,0,0-0.1,0-0.1c-5-5.6-12.9-8.6-20.4-7.6c-8,1.1-20,11.9-22.9,19.5c-11.3-7.4-27.7-6-37.6,3.3
						c-9.5,8.9-24.5,31.4-19.8,43.6c0,0,0,0,0,0.1C949.2,1267.5,953.4,1269.8,955.3,1273.1z"/>
					<path class="st58" d="M1055.9,1214.3c-0.7-3.5,11.9-8.9,16.3-12.3c6.3-4.8,13.1-9.5,20.9-11.4c7.7-1.9,16.7-0.6,22.3,5
						c1.5-10.3,20.4-24.7,30.6-26.8c5.2-1.1,11.1-1.9,16.2-1.1c-0.3-0.4-0.5-0.9-0.8-1.3c-5.6-7.8-17.3-6.6-26.7-4.7
						c-10.2,2.1-29.1,16.5-30.6,26.8c-5.6-5.7-14.6-6.9-22.3-5c-7.7,1.9-14.5,6.5-20.9,11.4c-4.5,3.4-17,8.8-16.3,12.3
						c0,0.1,0.1,0.1,0.1,0.2C1049,1208.5,1053,1210.9,1055.9,1214.3z"/>
				</g>
				<path class="st60" d="M2272,834.4c-4.2,2.5-8.2,5.5-11.9,8.8c-2.7-7-8.6-12.6-15.5-15.4c-9.5,1.4-18.9,3.2-28.3,5.5
					c-4.1,3.8-7.1,8.8-8.2,14.2c-0.3-3.9-0.6-7.9-1.2-11.9c-0.6,0.2-1.3,0.3-1.9,0.5c-12.5,3.4-25.4,7.9-34.2,17.5
					c-11.9,12.9-13.7,31.9-14.1,49.4c-0.5,21.2,0.3,42.4,2.2,63.5c-20.1,0-35.9,10.1-51.1,23.2c-15.2,13.1-20.4,39.2-5.9,53.1
					c-18.4-5.6-58.8,15.9-67.5,33.1c-8.7,17.1-3.4,40.1,12,51.7c-14.3,0.7-28,9.8-34.1,22.8c-6.1,13-4.4,29.3,4.3,40.7
					c-25.6-12-68.5-13-96.2-7.2c-17.3-9.1-36.6-14.5-56.1-15.9c-9.7-0.7-20.1-0.1-28,5.5s-11.6,18-5.3,25.4
					c-10.4,5.6-28.9,12.3-27.9,24.1c0.9,11.8,9.3,22.6,20.4,26.5c-14.8-3.5-30.4-7-44.9-2.4s-26.5,20.4-21.3,34.7
					c-17.8-6-37.2-11.7-55.1-5.9c-17.9,5.8-31.3,28.3-20.9,44c-28.8-11.8-86.8-22.8-115.5-10.7c-19-24.4-56.7-31.9-83.6-16.6
					c-18.1-16.2-47.3-15.5-67.8-2.4s-32.9,36.1-38.2,59.8c-17.5-17.1-46.3-13.7-69.4-5.7c-10.5,3.6-20.8,8-30.8,13.1H2272V834.4z"/>
			</g>
			<g>
				<rect x="0" y="539" class="st2" width="2272" height="99.5"/>
				<rect x="0" y="535.6" class="st61" width="2272" height="99.5"/>
				<rect x="0" y="532.1" class="st62" width="2272" height="99.5"/>
				<rect x="0" y="528.7" class="st63" width="2272" height="99.5"/>
				<rect x="0" y="525.2" class="st64" width="2272" height="99.5"/>
				<rect x="0" y="521.8" class="st65" width="2272" height="99.5"/>
				<rect x="0" y="518.3" class="st66" width="2272" height="99.5"/>
				<rect x="0" y="514.8" class="st67" width="2272" height="99.5"/>
				<rect x="0" y="511.4" class="st68" width="2272" height="99.5"/>
				<rect x="0" y="507.9" class="st69" width="2272" height="99.5"/>
				<rect x="0" y="504.5" class="st70" width="2272" height="99.5"/>
				<rect x="0" y="501" class="st71" width="2272" height="99.5"/>
				<rect x="0" y="497.6" class="st72" width="2272" height="99.5"/>
				<rect x="0" y="494.1" class="st73" width="2272" height="99.5"/>
				<rect x="0" y="490.7" class="st74" width="2272" height="99.5"/>
				<rect x="0" y="487.2" class="st75" width="2272" height="99.5"/>
				<rect x="0" y="483.8" class="st76" width="2272" height="99.5"/>
				<rect x="0" y="480.3" class="st77" width="2272" height="99.5"/>
				<rect x="0" y="476.8" class="st78" width="2272" height="99.5"/>
				<rect x="0" y="473.4" class="st79" width="2272" height="99.5"/>
				<rect x="0" y="469.9" class="st80" width="2272" height="99.5"/>
				<rect x="0" y="466.5" class="st81" width="2272" height="99.5"/>
				<rect x="0" y="463" class="st82" width="2272" height="99.5"/>
				<rect x="0" y="459.6" class="st83" width="2272" height="99.5"/>
				<rect x="0" y="456.1" class="st84" width="2272" height="99.5"/>
				<rect x="0" y="452.7" class="st85" width="2272" height="99.5"/>
				<rect x="0" y="449.2" class="st86" width="2272" height="99.5"/>
				<rect x="0" y="445.7" class="st87" width="2272" height="99.5"/>
				<rect x="0" y="442.3" class="st88" width="2272" height="99.5"/>
				<rect x="0" y="438.8" class="st89" width="2272" height="99.5"/>
				<rect x="0" y="435.4" class="st90" width="2272" height="99.5"/>
				<rect x="0" y="431.9" class="st91" width="2272" height="99.5"/>
				<rect x="0" y="428.5" class="st92" width="2272" height="99.5"/>
				<rect x="0" y="425" class="st93" width="2272" height="99.5"/>
				<rect x="0" y="421.6" class="st94" width="2272" height="99.5"/>
				<rect x="0" y="418.1" class="st95" width="2272" height="99.5"/>
				<rect x="0" y="414.6" class="st96" width="2272" height="99.5"/>
				<rect x="0" y="411.2" class="st97" width="2272" height="99.5"/>
				<rect x="0" y="407.7" class="st98" width="2272" height="99.5"/>
				<rect x="0" y="404.3" class="st99" width="2272" height="99.5"/>
				<rect x="0" y="400.8" class="st100" width="2272" height="99.5"/>
				<rect x="0" y="397.4" class="st101" width="2272" height="99.5"/>
				<rect x="0" y="393.9" class="st102" width="2272" height="99.5"/>
				<rect x="0" y="390.5" class="st103" width="2272" height="99.5"/>
				<rect x="0" y="387" class="st104" width="2272" height="99.5"/>
				<rect x="0" y="383.5" class="st105" width="2272" height="99.5"/>
				<rect x="0" y="380.1" class="st106" width="2272" height="99.5"/>
				<rect x="0" y="376.6" class="st107" width="2272" height="99.5"/>
				<rect x="0" y="373.2" class="st108" width="2272" height="99.5"/>
				<rect x="0" y="369.7" class="st109" width="2272" height="99.5"/>
				<rect x="0" y="366.3" class="st110" width="2272" height="99.5"/>
				<rect x="0" y="362.8" class="st111" width="2272" height="99.5"/>
				<rect x="0" y="359.4" class="st112" width="2272" height="99.5"/>
				<rect x="0" y="355.9" class="st113" width="2272" height="99.5"/>
				<rect x="0" y="352.4" class="st114" width="2272" height="99.5"/>
				<rect x="0" y="349" class="st115" width="2272" height="99.5"/>
				<rect x="0" y="345.5" class="st116" width="2272" height="99.5"/>
				<rect x="0" y="342.1" class="st117" width="2272" height="99.5"/>
				<rect x="0" y="338.6" class="st118" width="2272" height="99.5"/>
				<rect x="0" y="335.2" class="st119" width="2272" height="99.5"/>
				<rect x="0" y="331.7" class="st120" width="2272" height="99.5"/>
				<rect x="0" y="328.3" class="st121" width="2272" height="99.5"/>
				<rect x="0" y="324.8" class="st122" width="2272" height="99.5"/>
				<rect x="0" y="321.3" class="st123" width="2272" height="99.5"/>
				<rect x="0" y="317.9" class="st124" width="2272" height="99.5"/>
				<rect x="0" y="314.4" class="st125" width="2272" height="99.5"/>
				<rect x="0" y="311" class="st126" width="2272" height="99.5"/>
				<rect x="0" y="307.5" class="st127" width="2272" height="99.5"/>
				<rect x="0" y="304.1" class="st128" width="2272" height="99.5"/>
				<rect x="0" y="300.6" class="st129" width="2272" height="99.5"/>
				<rect x="0" y="297.2" class="st130" width="2272" height="99.5"/>
				<rect x="0" y="293.7" class="st131" width="2272" height="99.5"/>
				<rect x="0" y="290.3" class="st132" width="2272" height="99.5"/>
				<rect x="0" y="286.8" class="st133" width="2272" height="99.5"/>
				<rect x="0" y="283.3" class="st134" width="2272" height="99.5"/>
				<rect x="0" y="279.9" class="st135" width="2272" height="99.5"/>
				<rect x="0" y="276.4" class="st136" width="2272" height="99.5"/>
				<rect x="0" y="273" class="st137" width="2272" height="99.5"/>
				<rect x="0" y="269.5" class="st138" width="2272" height="99.5"/>
				<rect x="0" y="266.1" class="st139" width="2272" height="99.5"/>
				<rect x="0" y="262.6" class="st140" width="2272" height="99.5"/>
				<rect x="0" y="259.2" class="st141" width="2272" height="99.5"/>
				<rect x="0" y="255.7" class="st142" width="2272" height="99.5"/>
				<rect x="0" y="252.2" class="st143" width="2272" height="99.5"/>
				<rect x="0" y="248.8" class="st144" width="2272" height="99.5"/>
				<rect x="0" y="245.3" class="st145" width="2272" height="99.5"/>
				<rect x="0" y="241.9" class="st146" width="2272" height="99.5"/>
				<rect x="0" y="238.4" class="st147" width="2272" height="99.5"/>
				<rect x="0" y="235" class="st148" width="2272" height="99.5"/>
				<rect x="0" y="231.5" class="st149" width="2272" height="99.5"/>
				<rect x="0" y="228.1" class="st150" width="2272" height="99.5"/>
				<rect x="0" y="224.6" class="st151" width="2272" height="99.5"/>
				<rect x="0" y="221.1" class="st152" width="2272" height="99.5"/>
				<rect x="0" y="217.7" class="st153" width="2272" height="99.5"/>
				<rect x="0" y="214.2" class="st154" width="2272" height="99.5"/>
				<rect x="0" y="210.8" class="st155" width="2272" height="99.5"/>
				<rect x="0" y="207.3" class="st156" width="2272" height="99.5"/>
				<rect x="0" y="203.9" class="st157" width="2272" height="99.5"/>
				<rect x="0" y="200.4" class="st158" width="2272" height="99.5"/>
				<rect x="0" y="197" class="st159" width="2272" height="99.5"/>
				<rect x="0" y="193.5" class="st160" width="2272" height="99.5"/>
				<rect x="0" y="190" class="st161" width="2272" height="99.5"/>
				<rect x="0" y="186.6" class="st162" width="2272" height="99.5"/>
				<rect x="0" y="183.1" class="st163" width="2272" height="99.5"/>
				<rect x="0" y="179.7" class="st164" width="2272" height="99.5"/>
				<rect x="0" y="176.2" class="st165" width="2272" height="99.5"/>
				<rect x="0" y="172.8" class="st166" width="2272" height="99.5"/>
				<rect x="0" y="169.3" class="st167" width="2272" height="99.5"/>
				<rect x="0" y="165.9" class="st168" width="2272" height="99.5"/>
				<rect x="0" y="162.4" class="st169" width="2272" height="99.5"/>
				<rect x="0" y="158.9" class="st170" width="2272" height="99.5"/>
				<rect x="0" y="155.5" class="st171" width="2272" height="99.5"/>
				<rect x="0" y="152" class="st172" width="2272" height="99.5"/>
				<rect x="0" y="148.6" class="st173" width="2272" height="99.5"/>
				<rect x="0" y="145.1" class="st174" width="2272" height="99.5"/>
				<rect x="0" y="141.7" class="st175" width="2272" height="99.5"/>
				<rect x="0" y="138.2" class="st176" width="2272" height="99.5"/>
				<rect x="0" y="134.8" class="st177" width="2272" height="99.5"/>
				<rect x="0" y="131.3" class="st178" width="2272" height="99.5"/>
				<rect x="0" y="127.8" class="st179" width="2272" height="99.5"/>
				<rect x="0" y="124.4" class="st180" width="2272" height="99.5"/>
				<rect x="0" y="120.9" class="st181" width="2272" height="99.5"/>
				<rect x="0" y="117.5" class="st182" width="2272" height="99.5"/>
				<rect x="0" y="114" class="st183" width="2272" height="99.5"/>
				<rect x="0" y="110.6" class="st184" width="2272" height="99.5"/>
				<rect x="0" y="107.1" class="st185" width="2272" height="99.5"/>
				<rect x="0" y="103.7" class="st186" width="2272" height="99.5"/>
				<rect x="0" y="100.2" class="st187" width="2272" height="99.5"/>
				<rect x="0" y="96.8" class="st188" width="2272" height="99.5"/>
				<rect x="0" y="93.3" class="st189" width="2272" height="99.5"/>
				<rect x="0" y="89.8" class="st190" width="2272" height="99.5"/>
				<rect x="0" y="86.4" class="st191" width="2272" height="99.5"/>
				<rect x="0" y="82.9" class="st192" width="2272" height="99.5"/>
				<rect x="0" y="79.5" class="st193" width="2272" height="99.5"/>
				<rect x="0" y="76" class="st194" width="2272" height="99.5"/>
				<rect x="0" y="72.6" class="st195" width="2272" height="99.5"/>
				<rect x="0" y="69.1" class="st196" width="2272" height="99.5"/>
				<rect x="0" y="65.7" class="st197" width="2272" height="99.5"/>
				<rect x="0" y="62.2" class="st198" width="2272" height="99.5"/>
				<rect x="0" y="58.7" class="st199" width="2272" height="99.5"/>
				<rect x="0" y="55.3" class="st200" width="2272" height="99.5"/>
				<rect x="0" y="51.8" class="st201" width="2272" height="99.5"/>
				<rect x="0" y="48.4" class="st202" width="2272" height="99.5"/>
				<rect x="0" y="44.9" class="st203" width="2272" height="99.5"/>
				<rect x="0" y="41.5" class="st204" width="2272" height="99.5"/>
				<rect x="0" y="38" class="st205" width="2272" height="99.5"/>
				<rect x="0" y="34.6" class="st206" width="2272" height="99.5"/>
				<rect x="0" y="31.1" class="st207" width="2272" height="99.5"/>
				<rect x="0" y="27.6" class="st208" width="2272" height="99.5"/>
				<rect x="0" y="24.2" class="st209" width="2272" height="99.5"/>
				<rect x="0" y="20.7" class="st210" width="2272" height="99.5"/>
				<rect x="0" y="17.3" class="st211" width="2272" height="99.5"/>
				<rect x="0" y="13.8" class="st212" width="2272" height="99.5"/>
				<rect x="0" y="10.4" class="st213" width="2272" height="99.5"/>
				<rect x="0" y="6.9" class="st214" width="2272" height="99.5"/>
				<rect x="0" y="3.5" class="st215" width="2272" height="99.5"/>
				<rect x="0" class="st216" width="2272" height="99.5"/>
			</g>
		</g>
		<g>
			<g>
				<path class="st56" d="M205.9,254.3c5.7,0,5.7-8.8,0-8.8C200.3,245.5,200.2,254.3,205.9,254.3L205.9,254.3z"/>
			</g>
			<g>
				<path class="st56" d="M236.5,132.4c-1.2,0.3-2.5,0.5-3.7,0.8c-2.6,0.6-2.6,4.7,0,5.2c1.2,0.3,2.5,0.5,3.7,0.8
					c2.2,0.5,4.5-1,4.5-3.4C241,133.4,238.7,131.9,236.5,132.4L236.5,132.4z"/>
			</g>
			<g>
				<path class="st56" d="M99.7,99.9c4.5,0,4.5-6.9,0-6.9C95.2,93,95.2,99.9,99.7,99.9L99.7,99.9z"/>
			</g>
			<g>
				<path class="st56" d="M414.5,119.8c4.8,0,4.8-7.4,0-7.4C409.7,112.4,409.7,119.8,414.5,119.8L414.5,119.8z"/>
			</g>
			<g>
				<path class="st56" d="M324,314.7c2.4,0,2.4-3.7,0-3.7C321.6,311.1,321.6,314.7,324,314.7L324,314.7z"/>
			</g>
			<g>
				<path class="st56" d="M119.3,428.5c1.9,0,1.9-3,0-3C117.4,425.5,117.4,428.5,119.3,428.5L119.3,428.5z"/>
			</g>
			<g>
				<path class="st56" d="M44.6,215.8c1.6,0,1.6-2.5,0-2.5C42.9,213.2,42.9,215.8,44.6,215.8L44.6,215.8z"/>
			</g>
			<g>
				<path class="st56" d="M434.2,153.4c2.4,0,2.4-3.8,0-3.8C431.8,149.7,431.8,153.4,434.2,153.4L434.2,153.4z"/>
			</g>
			<g>
				<path class="st56" d="M623.1,58.1c6.4,0,6.4-9.9,0-9.9C616.7,48.2,616.7,58.1,623.1,58.1L623.1,58.1z"/>
			</g>
			<g>
				<path class="st56" d="M772.6,139.6c4.9,0,5-7.7,0-7.7C767.7,131.9,767.7,139.6,772.6,139.6L772.6,139.6z"/>
			</g>
			<g>
				<path class="st56" d="M686,182.4c4.2,0,4.2-6.6,0-6.6C681.8,175.8,681.8,182.4,686,182.4L686,182.4z"/>
			</g>
			<g>
				<path class="st56" d="M867.1,136.6c6.2,0,6.2-9.6,0-9.6C860.9,127.1,860.9,136.6,867.1,136.6L867.1,136.6z"/>
			</g>
			<g>
				<path class="st56" d="M1000.9,86.6c7.7,0,7.7-11.9,0-11.9C993.2,74.7,993.2,86.6,1000.9,86.6L1000.9,86.6z"/>
			</g>
			<g>
				<path class="st56" d="M1083.5,76.2c4.3,0,4.3-6.7,0-6.7C1079.2,69.5,1079.2,76.2,1083.5,76.2L1083.5,76.2z"/>
			</g>
			<g>
				<path class="st56" d="M1268.5,81c5.4,0,5.4-8.4,0-8.4C1263.1,72.5,1263.1,81,1268.5,81L1268.5,81z"/>
			</g>
			<g>
				<path class="st56" d="M1355.1,80.5c4.8,0,4.8-7.5,0-7.5C1350.2,73,1350.2,80.5,1355.1,80.5L1355.1,80.5z"/>
			</g>
			<g>
				<path class="st56" d="M1425.9,76.4c4.6,0,4.7-7.2,0-7.2C1421.3,69.2,1421.3,76.4,1425.9,76.4L1425.9,76.4z"/>
			</g>
			<g>
				<path class="st56" d="M1488.9,196.7c2.4,0,2.4-3.7,0-3.7C1486.5,193,1486.5,196.7,1488.9,196.7L1488.9,196.7z"/>
			</g>
			<g>
				<path class="st56" d="M1260.6,226.8c0.7,0,0.7-1,0-1C1260,225.8,1260,226.8,1260.6,226.8L1260.6,226.8z"/>
			</g>
			<g>
				<path class="st56" d="M1056,289.7c5.6,0,5.6-8.7,0-8.7C1050.4,281,1050.4,289.7,1056,289.7L1056,289.7z"/>
			</g>
			<g>
				<path class="st56" d="M1237,359.5c4.3,0,4.3-6.7,0-6.7C1232.7,352.8,1232.7,359.5,1237,359.5L1237,359.5z"/>
			</g>
			<g>
				<path class="st56" d="M1402.3,321.3c0.7,0,0.7-1.1,0-1.1C1401.6,320.2,1401.6,321.3,1402.3,321.3L1402.3,321.3z"/>
			</g>
			<g>
				<path class="st56" d="M1414.1,230.2c5.1,0,5.1-7.9,0-7.9C1409,222.4,1409,230.2,1414.1,230.2L1414.1,230.2z"/>
			</g>
			<g>
				<path class="st56" d="M1300,180.3c1.6,0,1.6-2.4,0-2.4C1298.4,177.9,1298.4,180.3,1300,180.3L1300,180.3z"/>
			</g>
			<g>
				<path class="st56" d="M1953.3,151.1c4.5,0,4.5-6.9,0-6.9C1948.8,144.1,1948.8,151.1,1953.3,151.1L1953.3,151.1z"/>
			</g>
			<g>
				<path class="st56" d="M2157.9,197.4c3.4,0,3.4-5.2,0-5.2C2154.5,192.2,2154.5,197.4,2157.9,197.4L2157.9,197.4z"/>
			</g>
			<g>
				<path class="st56" d="M2209.1,278.8c-2.8,0.1-5.6,0.1-8.4,0.5c-2,0.3-2,3.7,0,4.1c2.8,0.5,5.6,0.4,8.4,0.5
					C2212.4,284.1,2212.4,278.7,2209.1,278.8L2209.1,278.8z"/>
			</g>
			<g>
				<path class="st56" d="M2181.5,375.5c4.6,0,4.6-7.1,0-7.1C2176.9,368.4,2176.9,375.5,2181.5,375.5L2181.5,375.5z"/>
			</g>
			<g>
				<path class="st56" d="M2070.3,248.3c7.7,0,7.7-11.9,0-11.9C2062.6,236.4,2062.6,248.3,2070.3,248.3L2070.3,248.3z"/>
			</g>
			<g>
				<path class="st56" d="M1928,276.4c3.6,0,3.6-5.6,0-5.6C1924.4,270.8,1924.4,276.4,1928,276.4L1928,276.4z"/>
			</g>
			<g>
				<path class="st56" d="M1747.5,301.2c4.2,0,4.2-6.5,0-6.5C1743.3,294.7,1743.3,301.2,1747.5,301.2L1747.5,301.2z"/>
			</g>
			<g>
				<path class="st56" d="M1705.8,183c4,0,4-6.2,0-6.2C1701.9,176.8,1701.9,183,1705.8,183L1705.8,183z"/>
			</g>
			<g>
				<path class="st56" d="M1865.5,350.4c4.9,0,5-7.7,0-7.7C1860.6,342.7,1860.6,350.4,1865.5,350.4L1865.5,350.4z"/>
			</g>
			<g>
				<path class="st56" d="M1865.3,245.2c3.4,0,3.4-5.2,0-5.2C1861.9,240,1861.9,245.2,1865.3,245.2L1865.3,245.2z"/>
			</g>
			<g>
				<path class="st56" d="M1772,313.9c3.4,0,3.4-5.3,0-5.3C1768.6,308.5,1768.6,313.9,1772,313.9L1772,313.9z"/>
			</g>
			<g>
				<path class="st56" d="M1656.8,366.1c1.7,0,1.8-2.7,0-2.7C1655,363.3,1655,366.1,1656.8,366.1L1656.8,366.1z"/>
			</g>
			<g>
				<path class="st56" d="M1640.3,288.9c3.1,0,3.1-4.8,0-4.8C1637.2,284.1,1637.2,288.9,1640.3,288.9L1640.3,288.9z"/>
			</g>
			<g>
				<path class="st56" d="M1666.5,72.5c2.6,0,2.6-4,0-4C1663.9,68.5,1663.9,72.5,1666.5,72.5L1666.5,72.5z"/>
			</g>
			<g>
				<path class="st56" d="M596,211.2c4,0,4-6.2,0-6.2C592,205,592,211.2,596,211.2L596,211.2z"/>
			</g>
			<g>
				<path class="st56" d="M384.6,23c3.7,0,3.7-5.7,0-5.7C380.9,17.3,380.9,23,384.6,23L384.6,23z"/>
			</g>
			<g>
				<path class="st56" d="M747,288.6c4.3,0,4.4-6.8,0-6.8C742.7,281.9,742.7,288.6,747,288.6L747,288.6z"/>
			</g>
			<g>
				<path class="st56" d="M988.6,180.9c3.9,0,3.9-6.1,0-6.1C984.7,174.8,984.7,180.9,988.6,180.9L988.6,180.9z"/>
			</g>
			<g>
				<path class="st56" d="M2136.3,459c7.7,0,7.7-11.9,0-11.9C2128.6,447.1,2128.6,459,2136.3,459L2136.3,459z"/>
			</g>
			<g>
				<path class="st56" d="M2096,351.1c2.7,0,2.7-4.2,0-4.2C2093.3,346.9,2093.3,351.1,2096,351.1L2096,351.1z"/>
			</g>
			<g>
				<path class="st56" d="M2032.2,84.4c-1.1,0.1-2.2,0.2-3.4,0.3c-1.3,0.1-2.6,1.1-2.6,2.6c0.1,1.5,1.1,2.4,2.6,2.6
					c1.1,0.1,2.2,0.2,3.4,0.3c1.5,0.1,3-1.4,2.9-2.9C2035.1,85.8,2033.9,84.2,2032.2,84.4L2032.2,84.4z"/>
			</g>
			<g>
				<path class="st56" d="M1884.6,68.1c5.5,0,5.6-8.6,0-8.6C1879,59.5,1879,68.1,1884.6,68.1L1884.6,68.1z"/>
			</g>
			<g>
				<path class="st56" d="M2163.1,58c1.1,0,1.1-1.8,0-1.8C2162,56.2,2162,58,2163.1,58L2163.1,58z"/>
			</g>
			<g>
				<path class="st56" d="M2243.7,471.2c6.1,0,6.1-9.5,0-9.5C2237.6,461.7,2237.6,471.2,2243.7,471.2L2243.7,471.2z"/>
			</g>
			<g>
				<path class="st56" d="M35.6,524.2c5.1,0,5.1-8,0-8C30.5,516.2,30.5,524.2,35.6,524.2L35.6,524.2z"/>
			</g>
			<g>
				<path class="st56" d="M196.7,473.9c5.2,0,5.2-8.1,0-8.1C191.5,465.8,191.5,473.9,196.7,473.9L196.7,473.9z"/>
			</g>
			<g>
				<path class="st56" d="M394.7,477.4c5.4,0,5.4-8.4,0-8.4C389.2,469,389.2,477.4,394.7,477.4L394.7,477.4z"/>
			</g>
			<g>
				<path class="st56" d="M414.8,346.5c5.4,0,5.4-8.4,0-8.4C409.4,338.1,409.4,346.5,414.8,346.5L414.8,346.5z"/>
			</g>
			<g>
				<path class="st56" d="M257.1,375.1c3.3,0,3.3-5.2,0-5.2C253.8,369.9,253.8,375.1,257.1,375.1L257.1,375.1z"/>
			</g>
			<g>
				<path class="st56" d="M485.3,278.9c4.8,0,4.8-7.4,0-7.4C480.5,271.5,480.5,278.9,485.3,278.9L485.3,278.9z"/>
			</g>
			<g>
				<path class="st56" d="M79.2,318.8c4.2,0,4.2-6.6,0-6.6C75,312.2,75,318.8,79.2,318.8L79.2,318.8z"/>
			</g>
			<g>
				<path class="st56" d="M569.2,419.6c4.4,0,4.4-6.8,0-6.8C564.8,412.7,564.8,419.6,569.2,419.6L569.2,419.6z"/>
			</g>
			<g>
				<path class="st56" d="M951.7,251c7.7,0,7.7-11.9,0-11.9C944.1,239,944,251,951.7,251L951.7,251z"/>
			</g>
			<g>
				<path class="st56" d="M602.7,120.2c3.6,0,3.6-5.5,0-5.5C599.2,114.7,599.2,120.2,602.7,120.2L602.7,120.2z"/>
			</g>
			<g>
				<path class="st56" d="M132.9,36.6c3.9,0,3.9-6,0-6C129.1,30.6,129.1,36.6,132.9,36.6L132.9,36.6z"/>
			</g>
			<g>
				<path class="st56" d="M1102.7,336.3c5.2,0,5.3-8.2,0-8.2C1097.5,328.2,1097.5,336.3,1102.7,336.3L1102.7,336.3z"/>
			</g>
			<g>
				<path class="st56" d="M1190,247.6c7.7,0,7.7-11.9,0-11.9C1182.3,235.7,1182.3,247.6,1190,247.6L1190,247.6z"/>
			</g>
			<g>
				<path class="st56" d="M1250.4,190.1c2.7,0,2.7-4.2,0-4.2C1247.7,185.8,1247.7,190.1,1250.4,190.1L1250.4,190.1z"/>
			</g>
		</g>
	</g>
	<g class="st1">
		<rect x="0" y="1357.1" class="st216" width="2272" height="514.9"/>
		<path class="st217" d="M2117.8,1825.4c-39.2-20.1-80.9-34.8-121.8-51.2c-184-73.8-351.3-183.7-511.2-300.9
			c-32.8-24-65.4-48.5-101.3-67.5c-5.9-3.1-12.8-6.2-19.1-4c-14.3,5.1-39.3-13.6-30.8-1.1c50.8,74.8,132.6,189.8,183.4,264.6
			c-16.4,13.3-40.5,1.2-57.3-11.4c-77.3-57.8-146.4-126.4-204.6-203.3c-22.5-29.7-50.1-64.1-87.3-62.1c-19.6,1.1-38,12.7-57.6,11.5
			c-21.2-1.3-38.3-17.1-53.5-32c-3.7-3.6-7.4-7.2-11.1-10.9H939.8c25.4,30.9,50.7,61.9,76.1,92.8
			c115.3,140.7,230.5,281.4,345.8,422.1h830.7C2168.7,1854.7,2144,1838.9,2117.8,1825.4z"/>
		<path class="st217" d="M827,1424.2c53.3,4.6,107.1,9.3,160.3,3.6c51.5-5.5,101.7-20.8,153.2-26.4c83.4-9.1,167.3,7.2,251,12.1
			c95.8,5.6,192.2-3.7,287.8,4.2c75.8,6.3,150.2,23.4,225.8,31.6c121.4,13.2,246.4,3.7,366.9,17.9v-110.1H0v43.7
			C275,1380.7,551.9,1400.5,827,1424.2z"/>
		<path class="st28" d="M882.7,1665.3c10.5-9.2,22.3-16.7,35.1-22.3l144.5-63.4c7.5-3.4,52.2-22.9,58-44.4
			c2.6-9.5-19-12.4-24.8-20.7c-3.5-4.9-8.3-9-13.9-11.8c-32.2-16.3-68-18.8-102.5-21.2c-23.9-1.7-46.6-3.3-67.2-9.2
			c-2.8-0.8-3.5-3-3.7-4.2c-0.2-1.5,0.1-3.5,2.4-4.8c66.8-39.1,143.7-78,216.9-106.1h-8.4c-51.8,19.3-65.3,26.1-141.1,58.5
			c-16.2,6.9-90.6,37.2-100.6,56.3c-6.8,13,11.7,26.1,25.8,30.2c23.7,6.8,49.1,8.6,73.6,10.3c33,2.3,64.1,4.5,90.7,18
			c1.2,0.6,2.1,1.3,2.7,2.1c0.6,0.9,0.6,1.1,0.5,1.5c-1.2,4.3-9.5,12.2-21,17.3l-211.7,94.9c-4.2,1.9-8,4.6-11.1,7.9h0
			c-15.1,15.9-34.8,26.6-56.3,30.7l-21.1,4c-7.4,1.4-14.6,3.7-21.4,6.7L334.1,1872H479l354.6-173.9
			C851.3,1689.4,867.8,1678.4,882.7,1665.3z"/>
		<path class="st216" d="M1127.5,1357.1l12.2-16.1l2.4-11.4v-17.9l2.9-3h5.8l9.9,1.4l10.6-2.5l3.8,1.2l-4,32.2l7.1,16.1l-1.1,13.3
			l-28-5.2C1149.1,1365.2,1143.1,1365.1,1127.5,1357.1z"/>
		<path class="st218" d="M1127.5,1357.1l5.6,11.3l6.7,3.9c0,0,6.4,5.1,6.5,5.1s1.6,5.4,1.6,5.4l7,7.4h8.8l4.6-3.9l5.6,1.1
			c0,0,4.3,1.1,4.4,1.1c0.1,0,6.4-0.3,6.4-0.3l1.4-8.8l-7.9-22.2H1127.5z"/>
		<g>
			<path class="st216" d="M1225.6,1350c0,0-6.9,8.6,16.1-6.7l22.1-29.1l4.4-20.7v-32.5l5.3-5.4h10.4l17.9,2.6l19.2-4.6l6.9,2.2
				l-7.2,58.4l12.9,29.1l10.7,73.3l-127-17.4L1225.6,1350z"/>
		</g>
		<g>
			<path class="st218" d="M1409.4,1424.1l153.1,21.4l30.3,13.2c0,0,29.1,17.4,29.6,17.4s7.1,18.6,7.1,18.6l31.9,25.2h39.9l20.7-13.2
				l25.5,3.6c0,0,19.5,3.6,20.1,3.6s29.2-1.1,29.2-1.1l6.5-30.1l66.1-58.6H1409.4z"/>
			<path class="st216" d="M1759.6,1229l3-51.2l-4.1-23.9l5.3-30.7l-4.8-20.5l-12.7-7.7l-27.5,7.7l-58.7-10.3l-15.8,3.5l-7.6,28.4
				v66.8l-9.1,42.5l-45.4,59.9c-27.4,18.4-45.4,22.7-55.6,23.1c-8.1,0.3-15.8,3.8-21.5,9.6l-95.6,97.9h459.9l-98.2-130.6
				L1759.6,1229z"/>
			<path class="st28" d="M1534,1318c10.2-0.4,28.2-4.7,55.6-23.1l45.4-59.9l9.1-42.5v-66.8l7.6-28.4l15.8-3.5l58.7,10.3l23.9-6.7
				l-3.9-2.3l-27.5,7.7l-58.7-10.3l-15.8,3.5l-7.6,28.4v66.8l-9.1,42.5l-45.4,59.9c-27.4,18.4-45.4,22.7-55.6,23.1
				c-8.1,0.3-15.8,3.8-21.5,9.6l-95.6,97.9h8.7l94.3-96.6C1518.2,1321.8,1525.9,1318.3,1534,1318z"/>
		</g>
		<g>
			<g>
				<path class="st218" d="M826,1732.5l153.1,21.4l30.3,13.2c0,0,29.1,17.4,29.6,17.4s7.1,18.6,7.1,18.6l31.9,25.2h39.9l20.7-13.2
					l25.5,3.6c0,0,19.5,3.6,20.1,3.6c0.6,0,29.2-1.1,29.2-1.1l6.5-30.1l66.1-58.6H826z"/>
				<path class="st216" d="M1176.2,1537.3l3-51.2l-4.1-23.9l5.3-30.7l-4.8-20.5l-12.7-7.7l-27.5,7.7l-58.7-10.3l-15.8,3.5l-7.6,28.4
					v66.8l-9.1,42.5l-45.4,59.9c-27.4,18.4-45.4,22.7-55.6,23.1c-8.1,0.3-15.8,3.8-21.5,9.6l-95.6,97.9h459.9l-98.2-130.6
					L1176.2,1537.3z"/>
				<path class="st218" d="M1187.7,1601.9l-11.6-64.6l3-51.2l-4.1-23.9l5.3-30.7l-4.8-20.5l-8.5-5.1c0.5,7.4,1,14.8,1.4,22.2
					c-10.2,16.2-20.8,53.8-13.2,71.3c-6.6,20.7-11.8,56.2-10.7,77.8c-14.2,14.1-26.8,32.9-43.7,43.7c12.8,8.4,12.3,29.8,22.5,41.2
					c-23.6,15.6-48.2,32-76.4,30.3c-24.4,12.8-50.9,26.4-78,39.9h317L1187.7,1601.9z"/>
			</g>
			<path class="st28" d="M950.6,1626.4c10.2-0.4,28.2-4.7,55.6-23.1l45.4-59.9l9.1-42.5V1434l7.6-28.4l15.8-3.5l58.7,10.3l23.9-6.7
				l-3.9-2.3l-27.5,7.7l-58.7-10.3l-15.8,3.5l-7.6,28.4v66.8l-9.1,42.5l-45.4,59.9c-27.4,18.4-45.4,22.7-55.6,23.1
				c-8.1,0.3-15.8,3.8-21.5,9.6l-95.6,97.9h8.7l94.3-96.6C934.8,1630.1,942.5,1626.7,950.6,1626.4z"/>
		</g>
		<g>
			<g>
				<path class="st218" d="M1466.1,1994.3l340.3,47.6l67.3,29.3c0,0,64.7,38.8,65.8,38.6c1.1-0.2,15.7,41.4,15.7,41.4l70.9,56h88.6
					l46.1-29.3l56.7,8c0,0,43.2,8,44.6,8c1.4,0,64.9-2.4,64.9-2.4l14.5-66.9l146.8-130.2H1466.1z"/>
				<path class="st216" d="M2244.2,1560.6l6.7-113.8l-9.1-53.1l11.8-68.2l-10.7-45.5l-28.3-17l-61,17l-130.5-22.9l-35.1,7.7
					l-17,63.1v148.5l-20.2,94.5L1850,1704.1c-60.9,40.9-100.9,50.5-123.6,51.4c-18.1,0.7-35.1,8.3-47.8,21.3l-212.6,217.6h1022.1
					l-218.2-290.2L2244.2,1560.6z"/>
				<path class="st218" d="M2269.9,1704.1l-25.8-143.5l6.7-113.8l-9.1-53.1l11.8-68.2l-10.7-45.5l-18.8-11.3
					c1.1,16.5,2.1,32.9,3.2,49.4c-22.6,35.9-46.2,119.5-29.4,158.5c-14.6,45.9-26.2,124.8-23.8,172.9c-31.5,31.3-59.6,73.2-97.1,97
					c28.4,18.6,27.4,66.2,49.9,91.5c-52.5,34.6-107,71.1-169.8,67.4c-54.1,28.5-113,58.6-173.3,88.8h704.4L2269.9,1704.1z"/>
			</g>
			<path class="st28" d="M1742.9,1758.4c22.7-0.9,62.6-10.5,123.6-51.4l100.9-133.1l20.2-94.5V1331l17-63.1l35.1-7.7l130.5,22.9
				l53.1-14.8l-8.6-5.2l-61,17l-130.5-22.9l-35.1,7.7l-17,63.1v148.5l-20.2,94.5L1850,1704.1c-60.9,40.9-100.9,50.5-123.6,51.4
				c-18.1,0.7-35.1,8.3-47.8,21.3l-212.6,217.6h19.4l209.7-214.6C1707.8,1766.8,1724.9,1759.2,1742.9,1758.4z"/>
		</g>
		<g>
			<g>
				<path class="st218" d="M535.1,1732.2L382,1753.6l10.9-13.6c0,0-29.1,17.4-29.6,17.4s-7.1,18.6-7.1,18.6l-31.9,25.2h-39.9
					l-20.7-13.2l-25.5,3.6c0,0-19.5,3.6-20.1,3.6s-29.2-1.1-29.2-1.1l-6.5-30.1l-66.1-58.6L535.1,1732.2z"/>
				<path class="st216" d="M226.2,1510.2l-3-51.2l4.1-23.9l-5.3-30.7l4.8-20.5l12.7-7.7l27.5,7.7l58.7-10.3l15.8,3.5l7.6,28.4v66.8
					l9.1,42.5l71.6,40.6c27.4,18.4,4.2,49.5,14.4,49.9c8.1,0.3,15.8,3.8,21.5,9.6l69.5,117.1l-418.7-26.8l98.2-130.6L226.2,1510.2z"
					/>
				<path class="st218" d="M214.6,1574.8l11.6-64.6l-3-51.2l4.1-23.9l-5.3-30.7l4.8-20.5l8.5-5.1c-0.5,7.4-1,14.8-1.4,22.2
					c10.2,16.2,20.8,53.8,13.2,71.3c6.6,20.7,11.8,56.2,10.7,77.8c14.2,14.1,26.8,32.9,43.7,43.7c-12.8,8.4-12.3,29.8-22.5,41.2
					c23.6,15.6,48.2,32,76.4,30.3c24.4,12.8,9.6,53.2,36.8,66.8l-275.8-26.8L214.6,1574.8z"/>
			</g>
			<path class="st28" d="M436.7,1606.8c-10.2-0.4,13-31.5-14.4-49.9l-71.6-40.6l-9.1-42.5v-66.8l-7.6-28.4l-15.8-3.5l-58.7,10.3
				l-23.9-6.7l3.9-2.3l27.5,7.7l58.7-10.3l15.8,3.5l7.6,28.4v66.8l9.1,42.5l71.6,40.6c27.4,18.4,4.2,49.5,14.4,49.9
				c8.1,0.3,15.8,3.8,21.5,9.6l69.5,117.1h-8.7l-68.2-115.8C452.5,1610.5,444.8,1607.1,436.7,1606.8z"/>
		</g>
		<g>
			<g>
				<path class="st218" d="M585.5,1917.6l-321.3,44.9l-63.6,27.7c0,0-61.1,36.6-62.1,36.4c-1-0.2-14.9,39.1-14.9,39.1l-66.9,52.9
					h-83.6l-43.5-27.7l-53.5,7.6c0,0-40.8,7.6-42.2,7.6c-1.3,0-61.3-2.3-61.3-2.3l-13.6-63.2l-138.6-122.9H585.5z"/>
				<path class="st216" d="M-149.1,1508.1l-6.3-107.4l8.6-50.1l-11.1-64.4l10.1-42.9l26.7-16.1l57.6,16.1l200-50.5l33.1,7.3l16,59.6
					v140.2l28.2,118.7l71.1,96c57.5,38.6,56.5,57.8,78,58.7c17,0.7,10.1,26.7,22.1,38.9l200.7,205.4h-965.1l206.1-274L-149.1,1508.1
					z"/>
				<path class="st218" d="M-173.5,1643.6l24.3-135.5l-6.3-107.4l8.6-50.1l-11.1-64.4l10.1-42.9l17.8-10.7c-1,15.6-2,31.1-3,46.7
					c21.3,33.9,43.6,112.9,27.8,149.7c13.8,43.3,24.7,117.8,22.5,163.3c29.7,29.6,56.3,69.1,91.7,91.6
					c-26.8,17.6-25.9,62.5-47.1,86.4c49.6,32.6,101.1,67.2,160.3,63.7c51.1,26.9,106.7,55.4,163.7,83.8h-665.1L-173.5,1643.6z"/>
			</g>
			<path class="st28" d="M347.2,1676c-21.5-0.8-20.4-20.1-78-58.7l-71.1-96l-28.2-118.7v-140.2l-16-59.6l-33.1-7.3l-200,50.5
				l-50.1-14l8.1-4.9l57.6,16.1l200-50.5l33.1,7.3l16,59.6v140.2l28.2,118.7l71.1,96c57.5,38.6,56.5,57.8,78,58.7
				c17,0.7,10.1,26.7,22.1,38.9l200.7,205.4h-18.3l-198-202.6C357.3,1702.8,364.2,1676.7,347.2,1676z"/>
		</g>
	</g>
	<g class="st1">
		<g>
			<path class="st56" d="M599.2,511.1C604.1,517,1492.3,158,1765,56.8C1772.2,54.2,594.3,505.2,599.2,511.1L599.2,511.1z"/>
		</g>
		<g>
			<path class="st56" d="M1055.3,392.1c4.9,5.9,515.3-221,788-322.2C1850.4,67.2,1050.3,386.2,1055.3,392.1L1055.3,392.1z"/>
		</g>
		<g>
			<path class="st56" d="M1035.9,172.2c4.9,5.9,140.7-60.7,413.3-161.9C1456.4,7.7,1031,166.3,1035.9,172.2L1035.9,172.2z"/>
		</g>
	</g>
</g>
</svg>
